<svg width="14" height="19" viewBox="0 0 14 19" fill="none" xmlns="http://www.w3.org/2000/svg">
<path d="M0 19V17H5V15C3.61667 15 2.4375 14.5125 1.4625 13.5375C0.4875 12.5625 0 11.3833 0 10C0 8.98333 0.279167 8.05833 0.8375 7.225C1.39583 6.39167 2.15 5.78333 3.1 5.4C3.23333 4.83333 3.52917 4.375 3.9875 4.025C4.44583 3.675 4.96667 3.5 5.55 3.5L5 1.95L5.95 1.6L5.6 0.7L7.5 0L7.8 0.95L8.75 0.6L11.5 8.1L10.55 8.45L10.9 9.4L9 10.1L8.7 9.15L7.75 9.5L7.15 7.85C6.9 8.08333 6.6125 8.25833 6.2875 8.375C5.9625 8.49167 5.63333 8.53333 5.3 8.5C4.93333 8.46667 4.59167 8.35417 4.275 8.1625C3.95833 7.97083 3.68333 7.73333 3.45 7.45C3 7.71667 2.64583 8.075 2.3875 8.525C2.12917 8.975 2 9.46667 2 10C2 10.8333 2.29167 11.5417 2.875 12.125C3.45833 12.7083 4.16667 13 5 13H13V15H8V17H14V19H0ZM8.65 7.55L9.55 7.2L7.85 2.5L6.9 2.85L8.65 7.55ZM5.5 7C5.78333 7 6.02083 6.90417 6.2125 6.7125C6.40417 6.52083 6.5 6.28333 6.5 6C6.5 5.71667 6.40417 5.47917 6.2125 5.2875C6.02083 5.09583 5.78333 5 5.5 5C5.21667 5 4.97917 5.09583 4.7875 5.2875C4.59583 5.47917 4.5 5.71667 4.5 6C4.5 6.28333 4.59583 6.52083 4.7875 6.7125C4.97917 6.90417 5.21667 7 5.5 7Z" fill="white"/>
</svg>
